<svg width="22" height="22" viewBox="0 0 22 22" fill="none" xmlns="http://www.w3.org/2000/svg">
<path fill-rule="evenodd" clip-rule="evenodd" d="M4.58394 16.121C4.22599 16.479 4.22604 17.0594 4.58405 17.4173C4.94207 17.7753 5.52246 17.7753 5.88041 17.4172L11.0002 12.2965L16.1204 17.4168C16.4784 17.7747 17.0588 17.7747 17.4168 17.4168C17.7748 17.0588 17.7748 16.4784 17.4168 16.1204L12.2965 11.0001L17.4164 5.87925C17.7743 5.52123 17.7743 4.94084 17.4162 4.58289C17.0583 4.22493 16.4779 4.22498 16.1199 4.583L11 9.70375L5.87979 4.58344C5.52181 4.22546 4.94141 4.22546 4.58343 4.58344C4.22544 4.94142 4.22544 5.52182 4.58343 5.87981L9.70387 11.0002L4.58394 16.121Z" fill="white"/>
</svg>
